<svg width="15" height="15" viewBox="0 0 15 15" fill="none" xmlns="http://www.w3.org/2000/svg">
<path fill-rule="evenodd" clip-rule="evenodd" d="M5.22623 3.33657C5.35248 3.21401 5.52363 3.14516 5.70207 3.14516C5.88051 3.14516 6.05166 3.21401 6.17792 3.33657L9.99366 7.04537C10.1198 7.16809 10.1906 7.33444 10.1906 7.50788C10.1906 7.68132 10.1198 7.84767 9.99366 7.97039L6.17792 11.6792C6.05027 11.7948 5.88144 11.8577 5.70699 11.8547C5.53254 11.8517 5.3661 11.7831 5.24273 11.6631C5.11935 11.5432 5.04868 11.3815 5.04561 11.2119C5.04253 11.0423 5.10728 10.8782 5.22623 10.7542L8.56612 7.50788L5.22623 4.26159C5.10013 4.13887 5.0293 3.97252 5.0293 3.79908C5.0293 3.62564 5.10013 3.45929 5.22623 3.33657Z" fill="#D7D9DD"/>
</svg>
