<svg width="32" height="16" viewBox="0 0 32 16" fill="none" xmlns="http://www.w3.org/2000/svg">
<path d="M0 0H8.51319V16H0V0Z" fill="white"/>
<path d="M32 4.63329C32 2.07439 30.0778 0 27.7066 0C25.3354 0 23.4132 2.07439 23.4132 4.63329V4.63339C23.4132 7.19229 25.3354 9.26668 27.7066 9.26668C30.0778 9.26668 32 7.19229 32 4.63339V4.63329Z" fill="white"/>
<path d="M8.51319 0C8.51319 2.10555 8.89748 4.15711 9.64411 6.10235C10.3908 8.04759 11.4852 9.81512 12.8648 11.3039C14.2444 12.7928 15.8822 13.9738 17.6848 14.7795C19.4874 15.5853 21.456 16 23.4071 16V8.9999C22.3079 8.9999 21.1827 8.76624 20.1671 8.31231C19.1515 7.85832 18.2288 7.19293 17.4515 6.35412C16.6742 5.5153 16.0577 4.51948 15.637 3.42354C15.2163 2.32759 14.9998 1.18627 14.9998 0H8.51319Z" fill="white"/>
</svg>
